<svg xmlns="http://www.w3.org/2000/svg" width="30" height="30" viewBox="0 0 30 30" fill="none">
  <rect width="30" height="30" rx="15" fill="white"/>
  <rect x="0.5" y="0.5" width="29" height="29" rx="14.5" stroke="#F97615" stroke-opacity="0.7"/>
  <path d="M18.75 15C18.7491 15.2269 18.6699 15.4444 18.5292 15.6062L13.4821 21.3114C13.3399 21.4722 13.147 21.5625 12.9459 21.5625C12.7447 21.5625 12.5518 21.4722 12.4096 21.3114C12.2674 21.1506 12.1875 20.9326 12.1875 20.7052C12.1875 20.4779 12.2674 20.2598 12.4096 20.0991L16.9204 15L12.4096 9.90095C12.2674 9.74018 12.1875 9.52213 12.1875 9.29477C12.1875 9.06741 12.2674 8.84936 12.4096 8.68859C12.5518 8.52782 12.7447 8.4375 12.9459 8.4375C13.147 8.4375 13.3399 8.52782 13.4821 8.68859L18.5292 14.3938C18.6699 14.5556 18.7491 14.7731 18.75 15Z" fill="#404A59"/>
</svg>