<svg width="13" height="15" viewBox="0 0 13 15" fill="none" xmlns="http://www.w3.org/2000/svg">
<path d="M7.69781 10.1761L7.25156 9.82904C7.2619 9.76152 7.26734 9.69335 7.26785 9.62504C7.26839 9.55643 7.2627 9.48791 7.25085 9.42033L7.69356 9.07325C7.71266 9.0575 7.72565 9.03558 7.73031 9.01126C7.73497 8.98695 7.73099 8.96177 7.71906 8.94008L7.30114 8.21758C7.2885 8.19578 7.26853 8.17919 7.24478 8.17075C7.22104 8.16232 7.19507 8.1626 7.17152 8.17154L6.65443 8.3805C6.54647 8.29537 6.42668 8.22641 6.29885 8.17579L6.21952 7.62471C6.21671 7.60029 6.20494 7.57779 6.18649 7.56157C6.16803 7.54534 6.14421 7.53654 6.11964 7.53687H5.28381C5.25891 7.537 5.23485 7.54586 5.21582 7.56191C5.19679 7.57796 5.184 7.60019 5.17968 7.62471L5.10035 8.17579C4.97445 8.22975 4.85553 8.29872 4.74618 8.38121L4.22768 8.17154C4.20407 8.16317 4.1783 8.16317 4.1547 8.17155C4.13109 8.17994 4.11109 8.19619 4.09806 8.21758L3.68014 8.94008C3.66744 8.9617 3.66303 8.98719 3.66772 9.01181C3.67241 9.03644 3.68589 9.05852 3.70564 9.07396L4.14835 9.42104C4.13191 9.55678 4.13191 9.69401 4.14835 9.82975L3.70564 10.1768C3.68666 10.1927 3.6738 10.2146 3.66927 10.239C3.66475 10.2633 3.66884 10.2884 3.68085 10.31L4.09877 11.0325C4.11138 11.0541 4.13123 11.0706 4.15482 11.079C4.17841 11.0875 4.20421 11.0873 4.22768 11.0785L4.74547 10.8696C4.85322 10.9547 4.97276 11.0236 5.10035 11.0743L5.17968 11.6254C5.18402 11.65 5.19691 11.6723 5.21609 11.6884C5.23527 11.7045 5.2595 11.7133 5.28452 11.7132H6.11964C6.14454 11.7131 6.1686 11.7042 6.18763 11.6882C6.20666 11.6721 6.21945 11.6499 6.22377 11.6254L6.3031 11.0743C6.42844 11.0214 6.54632 10.9524 6.65372 10.8689L7.17577 11.0785C7.19937 11.0869 7.22515 11.0869 7.24875 11.0785C7.27236 11.0701 7.29236 11.0539 7.30539 11.0325L7.72331 10.31C7.73542 10.2882 7.73951 10.2629 7.73485 10.2384C7.73019 10.214 7.71708 10.1919 7.69781 10.1761ZM5.70172 10.2512C5.57791 10.2511 5.45692 10.2142 5.35404 10.1453C5.25116 10.0764 5.17101 9.9786 5.12373 9.86417C5.07644 9.74975 5.06414 9.62387 5.08838 9.50245C5.11262 9.38103 5.17232 9.26953 5.25992 9.18202C5.34752 9.09452 5.45909 9.03496 5.58053 9.01086C5.70198 8.98675 5.82784 8.99919 5.94222 9.04661C6.0566 9.09402 6.15435 9.17428 6.22312 9.27724C6.29189 9.38019 6.3286 9.50123 6.3286 9.62504C6.32869 9.70736 6.31254 9.78888 6.28106 9.86494C6.24958 9.941 6.2034 10.0101 6.14516 10.0683C6.08692 10.1264 6.01777 10.1725 5.94168 10.2039C5.86558 10.2353 5.78404 10.2514 5.70172 10.2512Z" fill="#343434"/>
<path d="M7.91671 0.416748H2.25004C1.87466 0.417869 1.51498 0.567485 1.24954 0.832919C0.984111 1.09835 0.834495 1.45804 0.833374 1.83341V13.1667C0.834495 13.5421 0.984111 13.9018 1.24954 14.1672C1.51498 14.4327 1.87466 14.5823 2.25004 14.5834H10.75C11.1254 14.5823 11.4851 14.4327 11.7505 14.1672C12.016 13.9018 12.1656 13.5421 12.1667 13.1667V4.66675L7.91671 0.416748ZM10.75 13.1667H2.25004V1.83341H7.20837V5.37508H10.75V13.1667Z" fill="#343434"/>
</svg>
