<svg width="14" height="14" viewBox="0 0 14 14" fill="none" xmlns="http://www.w3.org/2000/svg">
<path d="M9.66987 2.83079L11.1694 4.33033M10.6339 1.50975L6.57729 5.56637C6.36706 5.77522 6.224 6.0421 6.16646 6.33279L5.79175 8.20845L7.66741 7.83304C7.95783 7.77496 8.22416 7.63258 8.43383 7.42291L12.4905 3.36629C12.6124 3.24439 12.7091 3.09967 12.775 2.94039C12.841 2.78112 12.875 2.61041 12.875 2.43802C12.875 2.26562 12.841 2.09491 12.775 1.93564C12.7091 1.77637 12.6124 1.63165 12.4905 1.50975C12.3686 1.38784 12.2238 1.29115 12.0646 1.22517C11.9053 1.1592 11.7346 1.12524 11.5622 1.12524C11.3898 1.12524 11.2191 1.1592 11.0598 1.22517C10.9005 1.29115 10.7558 1.38784 10.6339 1.50975Z" stroke="#343434" stroke-width="1.2" stroke-linecap="round" stroke-linejoin="round"/>
<path d="M11.4584 9.62508V11.7501C11.4584 12.1258 11.3091 12.4861 11.0434 12.7518C10.7778 13.0175 10.4174 13.1667 10.0417 13.1667H2.25004C1.87432 13.1667 1.51398 13.0175 1.24831 12.7518C0.982629 12.4861 0.833374 12.1258 0.833374 11.7501V3.95841C0.833374 3.58269 0.982629 3.22236 1.24831 2.95668C1.51398 2.691 1.87432 2.54175 2.25004 2.54175H4.37504" stroke="#343434" stroke-width="1.2" stroke-linecap="round" stroke-linejoin="round"/>
</svg>
