<svg width="24" height="24" viewBox="0 0 24 24" fill="none" xmlns="http://www.w3.org/2000/svg">
<g opacity="0.25">
<path d="M5.05313 3.24373C4.91763 3.10198 4.73199 3.01893 4.536 3.01238C4.34001 3.00583 4.14925 3.07631 4.00459 3.20871C3.85994 3.34111 3.77289 3.5249 3.7621 3.7207C3.75131 3.9165 3.81764 4.10874 3.94688 4.25624L5.74688 6.23436C2.34375 8.32498 0.88125 11.55 0.815625 11.7C0.774092 11.7962 0.752667 11.8999 0.752667 12.0047C0.752667 12.1095 0.774092 12.2132 0.815625 12.3094C0.84375 12.375 1.64063 14.1375 3.40313 15.9094C5.75625 18.2531 8.72813 19.5 12 19.5C13.6809 19.5067 15.3446 19.1618 16.8844 18.4875L18.9469 20.7562C19.0171 20.833 19.1026 20.8943 19.1978 20.9363C19.293 20.9783 19.3959 21 19.5 21C19.6871 20.9981 19.8671 20.9282 20.0062 20.8031C20.08 20.7373 20.1398 20.6574 20.1822 20.5681C20.2245 20.4789 20.2486 20.382 20.253 20.2833C20.2573 20.1846 20.2419 20.086 20.2076 19.9933C20.1733 19.9007 20.1207 19.8158 20.0531 19.7437L5.05313 3.24373ZM9.4875 10.3594L13.3969 14.6531C12.9668 14.8818 12.4871 15.0009 12 15C11.4593 15.0001 10.9286 14.8542 10.4641 14.5775C9.99955 14.3009 9.61841 13.9038 9.36099 13.4283C9.10356 12.9528 8.97942 12.4166 9.00169 11.8764C9.02396 11.3362 9.19181 10.812 9.4875 10.3594ZM12 18C9.1125 18 6.59063 16.95 4.50938 14.8781C3.64713 14.0329 2.91707 13.0626 2.34375 12C2.78438 11.175 4.2 8.85936 6.77813 7.36873L8.46563 9.22499C7.81516 10.0615 7.48077 11.1007 7.52135 12.1596C7.56193 13.2185 7.97488 14.2291 8.68746 15.0134C9.40003 15.7976 10.3665 16.3053 11.4167 16.4469C12.4668 16.5885 13.5333 16.355 14.4281 15.7875L15.8063 17.3062C14.5914 17.771 13.3008 18.0063 12 18ZM23.1844 12.3094C23.1469 12.3937 22.2 14.4937 20.0531 16.4156C19.9155 16.5359 19.739 16.6025 19.5563 16.6031C19.4511 16.6044 19.347 16.5823 19.2513 16.5385C19.1557 16.4948 19.0709 16.4304 19.0031 16.35C18.9372 16.2767 18.8864 16.1912 18.8536 16.0983C18.8208 16.0055 18.8066 15.907 18.8118 15.8086C18.817 15.7103 18.8416 15.6139 18.884 15.525C18.9265 15.4361 18.9861 15.3565 19.0594 15.2906C20.1072 14.3507 20.9856 13.2376 21.6563 12C21.0813 10.9356 20.3515 9.96244 19.4906 9.11248C17.4094 7.04998 14.8875 5.99998 12 5.99998C11.3906 5.99753 10.7821 6.04772 10.1813 6.14998C9.98515 6.17994 9.78512 6.13197 9.62393 6.01634C9.46275 5.90071 9.35321 5.72659 9.31875 5.53123C9.30267 5.43397 9.30592 5.33448 9.32832 5.23847C9.35072 5.14246 9.39183 5.0518 9.4493 4.9717C9.50677 4.89159 9.57947 4.8236 9.66324 4.77161C9.74701 4.71963 9.84021 4.68467 9.9375 4.66874C10.6191 4.55517 11.309 4.49873 12 4.49998C15.2719 4.49998 18.2438 5.74686 20.5969 8.09061C22.3594 9.86248 23.1563 11.625 23.1844 11.7C23.2259 11.7962 23.2473 11.8999 23.2473 12.0047C23.2473 12.1095 23.2259 12.2132 23.1844 12.3094ZM12.5625 9.05624C12.4652 9.03777 12.3726 9.00032 12.2898 8.94604C12.207 8.89176 12.1357 8.82171 12.08 8.73987C11.9675 8.57461 11.9252 8.37141 11.9625 8.17498C11.9998 7.97856 12.1136 7.80499 12.2789 7.69247C12.4441 7.57995 12.6473 7.53769 12.8438 7.57499C13.8001 7.76202 14.6706 8.25257 15.3259 8.97375C15.9812 9.69494 16.3864 10.6083 16.4813 11.5781C16.4995 11.7757 16.4387 11.9725 16.3122 12.1254C16.1857 12.2782 16.0038 12.3747 15.8063 12.3937H15.7313C15.5457 12.3945 15.3666 12.3255 15.2295 12.2005C15.0923 12.0755 15.0071 11.9036 14.9906 11.7187C14.9259 11.0729 14.6548 10.4651 14.2174 9.98546C13.78 9.50585 13.1997 9.18 12.5625 9.05624Z" fill="#121212"/>
</g>
</svg>
