<svg xmlns="http://www.w3.org/2000/svg" width="24" height="24" viewBox="0 0 24 24" fill="none">
  <path d="M3.94691 4.5H20.0532C20.1986 4.50005 20.341 4.5424 20.4628 4.62191C20.5846 4.70141 20.6807 4.81463 20.7393 4.94777C20.798 5.08092 20.8166 5.22824 20.793 5.37179C20.7693 5.51533 20.7045 5.64891 20.6063 5.75625L14.4469 12.5344C14.3187 12.6716 14.2482 12.8529 14.25 13.0406V18.3469C14.2512 18.4715 14.2208 18.5944 14.1618 18.7042C14.1029 18.814 14.0171 18.9072 13.9125 18.975L10.9125 20.9719C10.8 21.046 10.6696 21.0884 10.535 21.0947C10.4004 21.101 10.2666 21.0709 10.1476 21.0076C10.0287 20.9443 9.92896 20.8501 9.859 20.7349C9.78904 20.6198 9.7514 20.4879 9.75003 20.3531V13.0406C9.75184 12.8529 9.68135 12.6716 9.55316 12.5344L3.39378 5.75625C3.29558 5.64891 3.23072 5.51533 3.2071 5.37179C3.18347 5.22824 3.20211 5.08092 3.26073 4.94777C3.31936 4.81463 3.41544 4.70141 3.53727 4.62191C3.6591 4.5424 3.80143 4.50005 3.94691 4.5V4.5Z" stroke="white" stroke-width="2" stroke-linecap="round" stroke-linejoin="round"/>
</svg>