<svg xmlns="http://www.w3.org/2000/svg" width="22" height="22" viewBox="0 0 22 22" fill="none">
  <g clip-path="url(#clip0_21_1500)">
    <path d="M11 1.83325L8.25001 4.58325H4.58334V8.24992L1.83334 10.9999L4.58334 13.7499V17.4166H8.25001L11 20.1666L13.75 17.4166H17.4167V13.7499L20.1667 10.9999L17.4167 8.24992V4.58325H13.75L11 1.83325Z" stroke="#1E1E1E" stroke-width="1.8" stroke-linejoin="round"/>
    <path d="M11 13.75C11.7293 13.75 12.4288 13.4603 12.9445 12.9445C13.4603 12.4288 13.75 11.7293 13.75 11C13.75 10.2707 13.4603 9.57118 12.9445 9.05546C12.4288 8.53973 11.7293 8.25 11 8.25C10.2707 8.25 9.57118 8.53973 9.05546 9.05546C8.53973 9.57118 8.25 10.2707 8.25 11C8.25 11.7293 8.53973 12.4288 9.05546 12.9445C9.57118 13.4603 10.2707 13.75 11 13.75Z" stroke="#1E1E1E" stroke-width="1.8" stroke-linejoin="round"/>
  </g>
  <defs>
    <clipPath id="clip0_21_1500">
      <rect width="22" height="22" fill="white"/>
    </clipPath>
  </defs>
</svg>