<svg xmlns="http://www.w3.org/2000/svg" width="23" height="23" viewBox="0 0 23 23" fill="none">
  <path d="M1.91669 5.5105C1.91669 5.31987 1.99241 5.13706 2.1272 5.00226C2.262 4.86747 2.44481 4.79175 2.63544 4.79175H17.4896C17.6802 4.79175 17.863 4.86747 17.9978 5.00226C18.1326 5.13706 18.2084 5.31987 18.2084 5.5105C18.2084 5.70112 18.1326 5.88394 17.9978 6.01873C17.863 6.15352 17.6802 6.22925 17.4896 6.22925H2.63544C2.44481 6.22925 2.262 6.15352 2.1272 6.01873C1.99241 5.88394 1.91669 5.70112 1.91669 5.5105ZM1.91669 17.0105C1.91669 16.8199 1.99241 16.6371 2.1272 16.5023C2.262 16.3675 2.44481 16.2917 2.63544 16.2917H14.6146C14.8052 16.2917 14.988 16.3675 15.1228 16.5023C15.2576 16.6371 15.3334 16.8199 15.3334 17.0105C15.3334 17.2011 15.2576 17.3839 15.1228 17.5187C14.988 17.6535 14.8052 17.7292 14.6146 17.7292H2.63544C2.44481 17.7292 2.262 17.6535 2.1272 17.5187C1.99241 17.3839 1.91669 17.2011 1.91669 17.0105ZM2.63544 10.5417C2.44481 10.5417 2.262 10.6175 2.1272 10.7523C1.99241 10.8871 1.91669 11.0699 1.91669 11.2605C1.91669 11.4511 1.99241 11.6339 2.1272 11.7687C2.262 11.9035 2.44481 11.9792 2.63544 11.9792H20.3646C20.5552 11.9792 20.738 11.9035 20.8728 11.7687C21.0076 11.6339 21.0834 11.4511 21.0834 11.2605C21.0834 11.0699 21.0076 10.8871 20.8728 10.7523C20.738 10.6175 20.5552 10.5417 20.3646 10.5417H2.63544Z" fill="#161616"/>
</svg>