<svg xmlns="http://www.w3.org/2000/svg" width="22" height="22" viewBox="0 0 22 22" fill="none">
  <path d="M12.4039 2.43646C13.0368 1.81846 13.8878 1.47483 14.7724 1.48004C15.6569 1.48525 16.5038 1.8389 17.1294 2.46431C17.755 3.08972 18.1089 3.93649 18.1144 4.82107C18.1198 5.70565 17.7764 6.55673 17.1586 7.18983L16.7846 7.56246L16.9029 7.68071C17.4184 8.19641 17.708 8.89575 17.708 9.62496C17.708 10.3542 17.4184 11.0535 16.9029 11.5692L14.9229 13.5492C14.7932 13.6744 14.6196 13.7437 14.4393 13.7422C14.259 13.7406 14.0866 13.6683 13.9591 13.5408C13.8317 13.4134 13.7594 13.2409 13.7578 13.0607C13.7562 12.8804 13.8255 12.7067 13.9508 12.5771L15.9308 10.5971C16.1885 10.3392 16.3333 9.98956 16.3333 9.62496C16.3333 9.26036 16.1885 8.91068 15.9308 8.65283L15.8125 8.53458L8.04925 16.2992C7.96079 16.3872 7.85004 16.4495 7.72888 16.4793L2.22888 17.8543C2.10944 17.884 1.98424 17.8811 1.86632 17.8458C1.74841 17.8106 1.64212 17.7444 1.55854 17.654C1.47495 17.5637 1.41715 17.4526 1.39115 17.3323C1.36516 17.212 1.37193 17.087 1.41075 16.9702L3.1295 11.814C3.16302 11.713 3.2195 11.6212 3.2945 11.5458L12.4039 2.43646ZM16.1851 3.40858C15.8126 3.03662 15.3077 2.8277 14.7813 2.8277C14.2548 2.8277 13.7499 3.03662 13.3774 3.40858L4.38213 12.4025L3.11025 16.2167L7.2105 15.1923L16.1865 6.21771C16.5589 5.84513 16.7681 5.33992 16.7681 4.81314C16.7681 4.28637 16.5589 3.78116 16.1865 3.40858M6.82963 20.625C5.1315 20.625 3.79363 19.8467 2.904 19.1028L4.6695 18.6628C5.32648 19.0413 6.0701 19.2435 6.82825 19.25C7.3865 19.25 7.96125 19.0245 8.5745 18.6216C9.18775 18.2187 9.78175 17.677 10.3813 17.116L10.5366 16.9688C11.066 16.4725 11.6146 15.9555 12.1399 15.5993C12.7009 15.2171 13.4461 14.8706 14.2258 15.1717C14.7428 15.3697 15.0783 15.7355 15.3134 16.1837C15.5348 16.6045 15.6874 17.1297 15.8359 17.7031C15.9046 17.9643 16.0188 18.2173 16.1521 18.3878C16.1958 18.4472 16.2487 18.4992 16.3089 18.5418C16.3433 18.5625 16.3584 18.5625 16.3625 18.5625C16.5303 18.5625 16.8176 18.4497 17.2288 18.1692C17.4831 17.996 17.7018 17.8227 17.919 17.6481C18.0528 17.5408 18.1913 17.4331 18.3343 17.325C18.7179 17.0376 19.0493 16.8451 19.2926 16.7227C19.4171 16.6594 19.5447 16.6025 19.6749 16.5522L19.7024 16.5412L19.712 16.5385L19.7161 16.5371H19.7175L19.9375 17.1875L19.7189 16.5357C19.8909 16.4797 20.078 16.4938 20.2397 16.5749C20.4014 16.6559 20.5246 16.7975 20.5827 16.9688C20.6408 17.1401 20.629 17.3274 20.5499 17.49C20.4708 17.6527 20.3308 17.7777 20.1603 17.8378L20.1548 17.8406L20.1121 17.8571C20.07 17.8736 20.004 17.9043 19.9141 17.9492C19.7354 18.0386 19.4728 18.1898 19.1579 18.4263C19.0768 18.4855 18.9723 18.5693 18.8513 18.6656C18.6024 18.8622 18.2889 19.1111 18.0015 19.3063C17.5753 19.5978 16.9826 19.9388 16.3625 19.9388C15.763 19.9388 15.3299 19.5745 15.0618 19.228C14.7995 18.8757 14.6101 18.4746 14.5049 18.0482C14.3536 17.4666 14.2354 17.0857 14.0979 16.8245C13.9741 16.5935 13.8641 16.5055 13.7321 16.4532C13.6194 16.412 13.3953 16.4078 12.914 16.7365C12.4836 17.028 12.0134 17.4693 11.4593 17.9905L11.3218 18.1183C10.7291 18.6752 10.0568 19.294 9.32938 19.7711C8.60063 20.2496 7.76188 20.625 6.82963 20.625Z" fill="#1E1E1E"/>
  <path d="M16.1851 3.40858C15.8126 3.03662 15.3077 2.8277 14.7813 2.8277C14.2548 2.8277 13.7499 3.03662 13.3774 3.40858L4.38213 12.4025L3.11025 16.2167L7.2105 15.1923L16.1865 6.21771C16.5589 5.84513 16.7681 5.33991 16.7681 4.81314C16.7681 4.28637 16.5589 3.78116 16.1865 3.40858M12.4039 2.43646C13.0368 1.81846 13.8878 1.47483 14.7724 1.48004C15.6569 1.48525 16.5038 1.8389 17.1294 2.46431C17.755 3.08972 18.1089 3.93649 18.1144 4.82107C18.1198 5.70565 17.7764 6.55673 17.1586 7.18983L16.7846 7.56246L16.9029 7.68071C17.4184 8.19641 17.708 8.89575 17.708 9.62496C17.708 10.3542 17.4184 11.0535 16.9029 11.5692L14.9229 13.5492C14.7932 13.6744 14.6196 13.7437 14.4393 13.7422C14.259 13.7406 14.0866 13.6683 13.9591 13.5408C13.8317 13.4134 13.7594 13.2409 13.7578 13.0607C13.7562 12.8804 13.8255 12.7067 13.9508 12.5771L15.9308 10.5971C16.1885 10.3392 16.3333 9.98956 16.3333 9.62496C16.3333 9.26036 16.1885 8.91068 15.9308 8.65283L15.8125 8.53458L8.04925 16.2992C7.96079 16.3872 7.85004 16.4495 7.72888 16.4793L2.22888 17.8543C2.10944 17.884 1.98424 17.8811 1.86632 17.8458C1.74841 17.8106 1.64212 17.7444 1.55854 17.654C1.47495 17.5637 1.41715 17.4526 1.39115 17.3323C1.36516 17.212 1.37193 17.087 1.41075 16.9702L3.1295 11.814C3.16302 11.713 3.2195 11.6212 3.2945 11.5458L12.4039 2.43646ZM6.82963 20.625C5.1315 20.625 3.79363 19.8467 2.904 19.1028L4.6695 18.6628C5.32648 19.0413 6.0701 19.2435 6.82825 19.25C7.3865 19.25 7.96125 19.0245 8.5745 18.6216C9.18775 18.2187 9.78175 17.677 10.3813 17.116L10.5366 16.9688C11.066 16.4725 11.6146 15.9555 12.1399 15.5993C12.7009 15.2171 13.4461 14.8706 14.2258 15.1717C14.7428 15.3697 15.0783 15.7355 15.3134 16.1837C15.5348 16.6045 15.6874 17.1297 15.8359 17.7031C15.9046 17.9643 16.0188 18.2173 16.1521 18.3878C16.1958 18.4472 16.2487 18.4992 16.3089 18.5418C16.3433 18.5625 16.3584 18.5625 16.3625 18.5625C16.5303 18.5625 16.8176 18.4497 17.2288 18.1692C17.4831 17.996 17.7018 17.8227 17.919 17.6481C18.0528 17.5408 18.1913 17.4331 18.3343 17.325C18.7179 17.0376 19.0493 16.8451 19.2926 16.7227C19.4171 16.6594 19.5447 16.6025 19.6749 16.5522L19.7024 16.5412L19.712 16.5385L19.7161 16.5371H19.7175L19.9375 17.1875L19.7189 16.5357C19.8909 16.4797 20.078 16.4938 20.2397 16.5749C20.4014 16.6559 20.5246 16.7975 20.5827 16.9688C20.6408 17.1401 20.629 17.3274 20.5499 17.49C20.4708 17.6527 20.3308 17.7777 20.1603 17.8378L20.1548 17.8406L20.1121 17.8571C20.07 17.8736 20.004 17.9043 19.9141 17.9492C19.7354 18.0386 19.4728 18.1898 19.1579 18.4263C19.0768 18.4855 18.9723 18.5693 18.8513 18.6656C18.6024 18.8622 18.2889 19.1111 18.0015 19.3063C17.5753 19.5978 16.9826 19.9388 16.3625 19.9388C15.763 19.9388 15.3299 19.5745 15.0618 19.228C14.7995 18.8757 14.6101 18.4746 14.5049 18.0482C14.3536 17.4666 14.2354 17.0857 14.0979 16.8245C13.9741 16.5935 13.8641 16.5055 13.7321 16.4532C13.6194 16.412 13.3953 16.4078 12.914 16.7365C12.4836 17.028 12.0134 17.4693 11.4593 17.9905L11.3218 18.1183C10.7291 18.6752 10.0568 19.294 9.32938 19.7711C8.60063 20.2496 7.76188 20.625 6.82963 20.625Z" stroke="#1E1E1E" stroke-width="0.5"/>
</svg>