<svg xmlns="http://www.w3.org/2000/svg" width="38" height="44" viewBox="0 0 38 44" fill="none">
  <path d="M20 43.6666L19.4583 37.1666H18.9167C13.7889 37.1666 9.4375 35.3791 5.8625 31.8041C2.2875 28.2291 0.5 23.8777 0.5 18.7499C0.5 13.6221 2.2875 9.27075 5.8625 5.69575C9.4375 2.12075 13.7889 0.333252 18.9167 0.333252C21.4806 0.333252 23.8733 0.811363 26.0948 1.76759C28.3164 2.72381 30.2664 4.04186 31.9448 5.72175C33.6233 7.40164 34.9406 9.35164 35.8968 11.5718C36.8531 13.7919 37.3319 16.1846 37.3333 18.7499C37.3333 21.4583 36.8913 24.0583 36.0073 26.5499C35.1233 29.0416 33.9129 31.3527 32.376 33.4832C30.8391 35.6138 29.0155 37.5457 26.9052 39.2791C24.7948 41.0124 22.4931 42.4749 20 43.6666ZM18.8625 30.6124C19.4764 30.6124 20 30.3958 20.4333 29.9624C20.8667 29.5291 21.0833 29.0055 21.0833 28.3916C21.0833 27.7777 20.8667 27.2541 20.4333 26.8208C20 26.3874 19.4764 26.1707 18.8625 26.1707C18.2486 26.1707 17.725 26.3874 17.2917 26.8208C16.8583 27.2541 16.6417 27.7777 16.6417 28.3916C16.6417 29.0055 16.8583 29.5291 17.2917 29.9624C17.725 30.3958 18.2486 30.6124 18.8625 30.6124ZM17.2917 23.7333H20.5417C20.5417 22.6499 20.65 21.8916 20.8667 21.4583C21.0833 21.0249 21.7694 20.2305 22.925 19.0749C23.575 18.4249 24.1167 17.7208 24.55 16.9624C24.9833 16.2041 25.2 15.3916 25.2 14.5249C25.2 12.6833 24.5774 11.3016 23.3323 10.3801C22.0872 9.45853 20.6153 8.99847 18.9167 8.99992C17.3278 8.99992 15.9917 9.44264 14.9083 10.3281C13.825 11.2135 13.0667 12.2875 12.6333 13.5499L15.6667 14.7416C15.8472 14.1277 16.1903 13.5232 16.6958 12.9281C17.2014 12.333 17.9417 12.0347 18.9167 12.0333C19.8917 12.0318 20.6233 12.3026 21.1115 12.8458C21.5997 13.3889 21.8431 13.9847 21.8417 14.6333C21.8417 15.2471 21.6611 15.7982 21.3 16.2864C20.9389 16.7746 20.5056 17.2708 20 17.7749C18.7361 18.8583 17.9691 19.7162 17.699 20.3489C17.4289 20.9816 17.2931 22.1097 17.2917 23.7333Z" fill="white"/>
</svg>