<svg xmlns="http://www.w3.org/2000/svg" width="22" height="22" viewBox="0 0 22 22" fill="none">
  <g clip-path="url(#clip0_21_1498)">
    <path d="M10.0833 8.25008H13.75C13.9931 8.25008 14.2263 8.1535 14.3982 7.9816C14.5701 7.80969 14.6667 7.57653 14.6667 7.33341C14.6667 7.0903 14.5701 6.85714 14.3982 6.68523C14.2263 6.51333 13.9931 6.41675 13.75 6.41675H11.9167V5.50008C11.9167 5.25697 11.8201 5.02381 11.6482 4.8519C11.4763 4.67999 11.2431 4.58341 11 4.58341C10.7569 4.58341 10.5237 4.67999 10.3518 4.8519C10.1799 5.02381 10.0833 5.25697 10.0833 5.50008V6.41675C9.35398 6.41675 8.65451 6.70648 8.13878 7.2222C7.62306 7.73793 7.33333 8.4374 7.33333 9.16675C7.33333 9.89609 7.62306 10.5956 8.13878 11.1113C8.65451 11.627 9.35398 11.9167 10.0833 11.9167H11.9167C12.1598 11.9167 12.3929 12.0133 12.5648 12.1852C12.7368 12.3571 12.8333 12.5903 12.8333 12.8334C12.8333 13.0765 12.7368 13.3097 12.5648 13.4816C12.3929 13.6535 12.1598 13.7501 11.9167 13.7501H8.24999C8.00688 13.7501 7.77372 13.8467 7.60181 14.0186C7.4299 14.1905 7.33333 14.4236 7.33333 14.6667C7.33333 14.9099 7.4299 15.143 7.60181 15.3149C7.77372 15.4868 8.00688 15.5834 8.24999 15.5834H10.0833V16.5001C10.0833 16.7432 10.1799 16.9764 10.3518 17.1483C10.5237 17.3202 10.7569 17.4167 11 17.4167C11.2431 17.4167 11.4763 17.3202 11.6482 17.1483C11.8201 16.9764 11.9167 16.7432 11.9167 16.5001V15.5834C12.646 15.5834 13.3455 15.2937 13.8612 14.778C14.3769 14.2622 14.6667 13.5628 14.6667 12.8334C14.6667 12.1041 14.3769 11.4046 13.8612 10.8889C13.3455 10.3731 12.646 10.0834 11.9167 10.0834H10.0833C9.84021 10.0834 9.60705 9.98684 9.43515 9.81493C9.26324 9.64302 9.16666 9.40986 9.16666 9.16675C9.16666 8.92363 9.26324 8.69047 9.43515 8.51857C9.60705 8.34666 9.84021 8.25008 10.0833 8.25008ZM11 0.916748C9.0057 0.916748 7.05619 1.50813 5.39799 2.6161C3.7398 3.72407 2.44739 5.29887 1.68421 7.14136C0.921025 8.98384 0.721342 11.0113 1.11041 12.9672C1.49948 14.9232 2.45982 16.7199 3.87 18.1301C5.28018 19.5403 7.07686 20.5006 9.03283 20.8897C10.9888 21.2787 13.0162 21.079 14.8587 20.3159C16.7012 19.5527 18.276 18.2603 19.384 16.6021C20.492 14.9439 21.0833 12.9944 21.0833 11.0001C21.0833 8.32581 20.021 5.76108 18.13 3.87009C16.239 1.9791 13.6743 0.916748 11 0.916748ZM11 19.2501C9.3683 19.2501 7.77325 18.7662 6.41654 17.8597C5.05983 16.9532 4.00241 15.6647 3.37799 14.1572C2.75357 12.6497 2.59019 10.9909 2.90852 9.39059C3.22684 7.79024 4.01258 6.32023 5.16636 5.16645C6.32015 4.01267 7.79016 3.22693 9.3905 2.9086C10.9908 2.59027 12.6496 2.75365 14.1571 3.37808C15.6646 4.0025 16.9531 5.05992 17.8596 6.41663C18.7661 7.77333 19.25 9.36839 19.25 11.0001C19.25 13.1881 18.3808 15.2865 16.8336 16.8337C15.2865 18.3809 13.188 19.2501 11 19.2501Z" fill="#1E1E1E"/>
  </g>
  <defs>
    <clipPath id="clip0_21_1498">
      <rect width="22" height="22" fill="white"/>
    </clipPath>
  </defs>
</svg>