<svg width="4" height="18" viewBox="0 0 4 18" fill="none" xmlns="http://www.w3.org/2000/svg">
<path d="M3.86744 2.589C3.86751 2.83428 3.81928 3.07718 3.72549 3.30382C3.6317 3.53047 3.49418 3.73641 3.32079 3.90991C3.14741 4.08341 2.94155 4.22106 2.71497 4.31499C2.48838 4.40893 2.24552 4.45732 2.00024 4.4574C1.75495 4.45748 1.51206 4.40925 1.28541 4.31545C1.05877 4.22166 0.852823 4.08415 0.679326 3.91076C0.505829 3.73737 0.368183 3.53151 0.274244 3.30493C0.180305 3.07835 0.131915 2.83549 0.131836 2.5902C0.131677 2.09483 0.32831 1.61969 0.678478 1.26929C1.02865 0.918899 1.50366 0.721961 1.99904 0.721802C2.49441 0.721643 2.96955 0.918276 3.31995 1.26844C3.67034 1.61861 3.86728 2.09363 3.86744 2.589Z" fill="#343434"/>
<path d="M2.00001 10.8666C3.03124 10.8666 3.86721 10.0306 3.86721 8.9994C3.86721 7.96818 3.03124 7.1322 2.00001 7.1322C0.968786 7.1322 0.132812 7.96818 0.132812 8.9994C0.132812 10.0306 0.968786 10.8666 2.00001 10.8666Z" fill="#343434"/>
<path d="M2.00001 17.2782C3.03124 17.2782 3.86721 16.4422 3.86721 15.411C3.86721 14.3798 3.03124 13.5438 2.00001 13.5438C0.968786 13.5438 0.132812 14.3798 0.132812 15.411C0.132812 16.4422 0.968786 17.2782 2.00001 17.2782Z" fill="#343434"/>
</svg>
