<svg width="20" height="20" viewBox="0 0 20 20" fill="none" xmlns="http://www.w3.org/2000/svg">
<path d="M19.5625 9.99999C19.5625 8.40917 19.1657 6.84347 18.4079 5.44472C17.6502 4.04597 16.5554 2.85837 15.2228 1.9895C13.8903 1.12062 12.362 0.597932 10.7764 0.468769C9.19084 0.339605 7.5981 0.608053 6.14246 1.24979C4.68682 1.89154 3.41429 2.88629 2.44013 4.14396C1.46596 5.40162 0.820955 6.88245 0.56353 8.4523C0.306104 10.0222 0.444396 11.6314 0.965877 13.1343C1.48736 14.6373 2.37555 15.9863 3.55 17.0594L3.6625 17.1531C5.40911 18.7043 7.66399 19.5611 10 19.5611C12.336 19.5611 14.5909 18.7043 16.3375 17.1531L16.45 17.0594C17.4316 16.1641 18.2154 15.0738 18.7514 13.8582C19.2873 12.6426 19.5636 11.3285 19.5625 9.99999ZM1.5625 9.99999C1.56062 8.62254 1.896 7.26557 2.53936 6.0476C3.18271 4.82962 4.11448 3.78768 5.25329 3.01276C6.39209 2.23785 7.7033 1.75353 9.0724 1.60209C10.4415 1.45066 11.8269 1.63672 13.1075 2.14403C14.3881 2.65134 15.5251 3.46447 16.4191 4.51241C17.313 5.56034 17.9369 6.81121 18.2361 8.15578C18.5352 9.50034 18.5007 10.8977 18.1354 12.2259C17.7702 13.554 17.0853 14.7725 16.1406 15.775C15.2546 14.4044 13.934 13.371 12.3906 12.8406C13.1611 12.3274 13.746 11.58 14.0588 10.7087C14.3716 9.83743 14.3958 8.88863 14.1277 8.00256C13.8597 7.1165 13.3136 6.34022 12.5702 5.7885C11.8269 5.23677 10.9257 4.93889 10 4.93889C9.07428 4.93889 8.17312 5.23677 7.42977 5.7885C6.68643 6.34022 6.14035 7.1165 5.87228 8.00256C5.6042 8.88863 5.62837 9.83743 5.94119 10.7087C6.25402 11.58 6.83891 12.3274 7.60937 12.8406C6.06595 13.371 4.74537 14.4044 3.85937 15.775C2.38276 14.215 1.56069 12.148 1.5625 9.99999ZM6.8125 9.24999C6.8125 8.61956 6.99944 8.00329 7.34969 7.47911C7.69994 6.95493 8.19776 6.54638 8.7802 6.30512C9.36264 6.06387 10.0035 6.00075 10.6219 6.12374C11.2402 6.24673 11.8081 6.55031 12.2539 6.99609C12.6997 7.44187 13.0033 8.00982 13.1263 8.62814C13.2492 9.24645 13.1861 9.88735 12.9449 10.4698C12.7036 11.0522 12.2951 11.5501 11.7709 11.9003C11.2467 12.2505 10.6304 12.4375 10 12.4375C9.15538 12.435 8.34607 12.0984 7.74883 11.5012C7.15159 10.9039 6.81497 10.0946 6.8125 9.24999ZM4.69375 16.5625C5.2452 15.6483 6.02349 14.8921 6.95316 14.3672C7.88284 13.8422 8.93236 13.5664 10 13.5664C11.0676 13.5664 12.1172 13.8422 13.0468 14.3672C13.9765 14.8921 14.7548 15.6483 15.3062 16.5625C13.8038 17.7756 11.931 18.4372 10 18.4372C8.06896 18.4372 6.19621 17.7756 4.69375 16.5625Z" fill="#425666"/>
</svg>
