<svg xmlns="http://www.w3.org/2000/svg" width="26" height="26" viewBox="0 0 26 26" fill="none">
  <path d="M5.85001 8.77505C5.85001 7.99929 6.15818 7.25531 6.70673 6.70676C7.25527 6.15822 7.99925 5.85005 8.77501 5.85005C9.55077 5.85005 10.2948 6.15822 10.8433 6.70676C11.3918 7.25531 11.7 7.99929 11.7 8.77505C11.7 9.55081 11.3918 10.2948 10.8433 10.8433C10.2948 11.3919 9.55077 11.7 8.77501 11.7C7.99925 11.7 7.25527 11.3919 6.70673 10.8433C6.15818 10.2948 5.85001 9.55081 5.85001 8.77505ZM8.77501 4.55005C7.65447 4.55005 6.57983 4.99518 5.78749 5.78752C4.99514 6.57986 4.55001 7.65451 4.55001 8.77505C4.55001 9.89559 4.99514 10.9702 5.78749 11.7626C6.57983 12.5549 7.65447 13 8.77501 13C9.89555 13 10.9702 12.5549 11.7625 11.7626C12.5549 10.9702 13 9.89559 13 8.77505C13 7.65451 12.5549 6.57986 11.7625 5.78752C10.9702 4.99518 9.89555 4.55005 8.77501 4.55005ZM16.1681 19.6885C16.8675 19.9745 17.7476 20.15 18.85 20.15C21.2953 20.15 22.6473 19.2816 23.3597 18.2858C23.7322 17.7637 23.9653 17.1552 24.037 16.5178C24.0434 16.4586 24.0477 16.3992 24.05 16.3397V16.25C24.05 15.994 23.9996 15.7404 23.9016 15.5038C23.8036 15.2672 23.6599 15.0523 23.4789 14.8712C23.2978 14.6901 23.0828 14.5465 22.8462 14.4485C22.6097 14.3505 22.3561 14.3 22.1 14.3H16.081C16.393 14.677 16.627 15.1177 16.7635 15.6H22.1C22.2724 15.6 22.4377 15.6685 22.5596 15.7904C22.6815 15.9123 22.75 16.0777 22.75 16.25V16.3202L22.7435 16.3852C22.6947 16.7977 22.5427 17.1911 22.3015 17.5292C21.8764 18.1259 20.9534 18.85 18.85 18.85C17.8984 18.85 17.1886 18.7018 16.6569 18.4847C16.5503 18.8487 16.3956 19.2595 16.1681 19.6885ZM1.95001 16.9C1.95001 16.2105 2.22394 15.5492 2.71153 15.0616C3.19913 14.574 3.86045 14.3 4.55001 14.3H13C13.6896 14.3 14.3509 14.574 14.8385 15.0616C15.3261 15.5492 15.6 16.2105 15.6 16.9V17.0092L15.5974 17.0612L15.5844 17.2367C15.4923 18.0792 15.193 18.8858 14.7134 19.5845C13.8021 20.904 12.0419 22.1 8.77501 22.1C5.50811 22.1 3.74791 20.904 2.83661 19.5858C2.35678 18.8867 2.05754 18.0797 1.96561 17.2367C1.9582 17.1611 1.95299 17.0852 1.95001 17.0092V16.9ZM3.25001 16.978V17.0014L3.25911 17.1093C3.32966 17.7325 3.55195 18.3289 3.90651 18.8461C4.53961 19.7613 5.86691 20.8 8.77501 20.8C11.6831 20.8 13.0104 19.7613 13.6435 18.8461C13.9981 18.3289 14.2204 17.7325 14.2909 17.1093C14.2961 17.0599 14.2987 17.024 14.2987 17.0014L14.3 16.9793V16.9C14.3 16.5553 14.163 16.2246 13.9193 15.9808C13.6755 15.737 13.3448 15.6 13 15.6H4.55001C4.20523 15.6 3.87457 15.737 3.63077 15.9808C3.38698 16.2246 3.25001 16.5553 3.25001 16.9V16.978ZM16.9 9.75005C16.9 9.23288 17.1055 8.73689 17.4712 8.37119C17.8369 8.00549 18.3328 7.80005 18.85 7.80005C19.3672 7.80005 19.8632 8.00549 20.2289 8.37119C20.5946 8.73689 20.8 9.23288 20.8 9.75005C20.8 10.2672 20.5946 10.7632 20.2289 11.1289C19.8632 11.4946 19.3672 11.7 18.85 11.7C18.3328 11.7 17.8369 11.4946 17.4712 11.1289C17.1055 10.7632 16.9 10.2672 16.9 9.75005ZM18.85 6.50005C17.9881 6.50005 17.1614 6.84246 16.5519 7.45195C15.9424 8.06144 15.6 8.88809 15.6 9.75005C15.6 10.612 15.9424 11.4387 16.5519 12.0481C17.1614 12.6576 17.9881 13 18.85 13C19.712 13 20.5386 12.6576 21.1481 12.0481C21.7576 11.4387 22.1 10.612 22.1 9.75005C22.1 8.88809 21.7576 8.06144 21.1481 7.45195C20.5386 6.84246 19.712 6.50005 18.85 6.50005Z" fill="#1E1E1E" stroke="#1E1E1E" stroke-width="0.5"/>
</svg>