<svg xmlns="http://www.w3.org/2000/svg" width="26" height="26" viewBox="0 0 26 26" fill="none">
  <path d="M19.9171 21.6666H6.0829C5.58456 21.6666 5.16856 21.4998 4.8349 21.1661C4.50123 20.8324 4.33404 20.4157 4.33331 19.9159V6.08392C4.33331 5.58486 4.50051 5.1685 4.8349 4.83484C5.16929 4.50117 5.58565 4.33397 6.08398 4.33325H19.9171C20.4154 4.33325 20.8318 4.50045 21.1661 4.83484C21.5005 5.16922 21.6674 5.58559 21.6666 6.08392V19.917C21.6666 20.4153 21.4998 20.8317 21.1661 21.1661C20.8325 21.5005 20.4168 21.6673 19.9171 21.6666ZM5.41665 9.20825H20.5833V6.08392C20.5833 5.91709 20.514 5.76397 20.3753 5.62459C20.2366 5.4852 20.0835 5.41586 19.916 5.41659H6.08398C5.91715 5.41659 5.76404 5.48592 5.62465 5.62459C5.48526 5.76325 5.41592 5.91636 5.41665 6.08392V9.20825ZM8.54206 10.2916H5.41665V19.917C5.41665 20.0831 5.48598 20.2359 5.62465 20.3753C5.76331 20.5146 5.91606 20.584 6.0829 20.5833H8.54206V10.2916ZM17.4579 10.2916V20.5833H19.9171C20.0832 20.5833 20.2359 20.5139 20.3753 20.3753C20.5147 20.2366 20.584 20.0835 20.5833 19.9159V10.2916H17.4579ZM16.3746 10.2916H9.6254V20.5833H16.3746V10.2916Z" fill="#161616"/>
</svg>