<svg width="157" height="48" viewBox="0 0 157 48" fill="none" xmlns="http://www.w3.org/2000/svg">
<g clip-path="url(#clip0_21_1767)">
<path d="M64.1755 19.7671H60.3912V30.5936H57.3637V19.7671H53.5794V17.3432H64.1755V19.7671ZM84.5569 30.5936H81.5294V25.2073H76.0151V30.5936H73.0417V17.3432H76.0151V22.6218H81.5294V17.3432H84.5569V30.5936ZM102.668 30.5936H94.6665V17.3432H102.343V19.7671H97.694V22.7296H102.019V25.1534H97.694V28.1697H102.668V30.5936ZM125.374 30.5936H122.671V22.6757C122.671 21.8139 122.725 20.8982 122.779 19.8209H122.725C122.671 20.0364 122.617 20.198 122.562 20.4134C122.508 20.6289 122.454 20.7905 122.4 20.9521C122.346 21.1137 122.292 21.2752 122.238 21.4368C122.184 21.5984 122.13 21.7062 122.13 21.76L119.589 26.6077H117.481L115.048 21.76C115.048 21.7062 114.994 21.5984 114.94 21.4907C114.886 21.383 114.832 21.2214 114.778 21.0598C114.724 20.8982 114.669 20.6827 114.615 20.4673C114.561 20.2518 114.507 20.0364 114.453 19.7671H114.345C114.399 20.3596 114.399 20.8982 114.453 21.383C114.453 21.8677 114.507 22.2986 114.507 22.6218V30.5397H111.804V17.2894H115.48L117.805 21.8677C117.859 22.0293 117.967 22.1909 118.021 22.3525C118.075 22.5141 118.183 22.6757 118.238 22.8373C118.292 22.9989 118.346 23.1605 118.4 23.322C118.454 23.4836 118.508 23.6452 118.508 23.753H118.562C118.616 23.5914 118.616 23.4836 118.67 23.322C118.724 23.1605 118.778 22.9989 118.832 22.8373C118.886 22.6757 118.94 22.5141 118.994 22.3525C119.048 22.1909 119.103 22.0293 119.157 21.9216L121.589 17.3432H125.32V30.5936H125.374ZM138.511 30.5936H135.537V17.3432H138.511V30.5936ZM147.972 30.1088V27.1463C148.512 27.5772 149.107 27.9543 149.702 28.1697C150.35 28.3852 150.945 28.4929 151.594 28.4929C151.972 28.4929 152.297 28.4391 152.567 28.3852C152.837 28.3313 153.108 28.2236 153.27 28.1159C153.486 28.0081 153.594 27.8466 153.702 27.685C153.81 27.5234 153.864 27.3618 153.864 27.1463C153.864 26.877 153.81 26.6616 153.648 26.4461C153.486 26.2307 153.27 26.0691 153.053 25.9075C152.783 25.7459 152.513 25.5843 152.134 25.4227C151.756 25.2611 151.378 25.0995 150.999 24.9379C149.972 24.507 149.161 23.9684 148.674 23.3759C148.188 22.7296 147.918 22.0293 147.918 21.1137C147.918 20.4134 148.08 19.8209 148.35 19.3362C148.62 18.8514 148.999 18.4205 149.485 18.0973C149.972 17.7741 150.513 17.5587 151.161 17.3971C151.81 17.2355 152.459 17.1816 153.162 17.1816C153.864 17.1816 154.459 17.2355 155 17.2894C155.54 17.3971 156.027 17.5048 156.459 17.6664V20.4134C156.243 20.2518 155.973 20.1441 155.757 19.9825C155.486 19.8748 155.216 19.7671 154.946 19.7132C154.675 19.6593 154.405 19.6055 154.135 19.5516C153.864 19.4978 153.594 19.4978 153.378 19.4978C153.053 19.4978 152.729 19.5516 152.459 19.6055C152.188 19.6593 151.972 19.7671 151.756 19.8748C151.54 19.9825 151.432 20.1441 151.323 20.3057C151.215 20.4673 151.161 20.6289 151.161 20.8443C151.161 21.0598 151.215 21.2752 151.323 21.4368C151.432 21.5984 151.594 21.76 151.81 21.9216C152.026 22.0832 152.297 22.2448 152.621 22.4064C152.945 22.568 153.27 22.7296 153.648 22.8911C154.189 23.1066 154.675 23.322 155.054 23.5914C155.486 23.8607 155.865 24.13 156.135 24.4532C156.459 24.7764 156.676 25.1534 156.838 25.5304C157 25.9075 157.054 26.3923 157.054 26.9309C157.054 27.685 156.892 28.2775 156.622 28.8161C156.351 29.3009 155.973 29.7318 155.486 30.055C155 30.3781 154.459 30.5936 153.81 30.7013C153.162 30.8629 152.513 30.9168 151.756 30.9168C151.053 30.9168 150.35 30.8629 149.702 30.7552C149.053 30.6474 148.458 30.432 147.972 30.2165V30.1088Z" fill="white"/>
</g>
<g clip-path="url(#clip1_21_1767)">
<path d="M27.9105 32.7711C27.9105 33.4561 28.4562 33.9356 29.0701 33.9356C29.7522 33.9356 30.2297 33.3876 30.2297 32.7711V29.7569V29.0034C30.2297 27.5648 29.6158 26.2632 28.729 25.3726C28.4562 25.0986 28.1833 24.8931 27.8423 24.6876V29.7569V32.7711H27.9105ZM32.3443 32.9081C32.276 34.6892 30.8436 36.0593 29.0701 36.0593C27.3648 36.0593 25.9324 34.6892 25.7959 32.9766V32.7711V23.8656C25.5913 23.8656 25.3184 23.7971 25.0456 23.7971H19.8615C18.4291 23.7971 17.133 24.4136 16.2463 25.3041C15.4278 26.1262 14.8821 27.1538 14.7456 28.3868C15.6324 28.7293 16.3827 29.2774 16.9966 29.9624C18.2926 31.264 19.1112 33.1136 19.1112 35.1002V43.7317V44.0742C18.9748 45.7183 17.5423 47.0199 15.9052 47.0199C14.1999 47.0199 12.8357 45.7183 12.6993 44.0742V43.7317V29.9624C12.4946 29.9624 12.2218 29.8939 11.949 29.8939H10.8576H2.19468H0.966871C0.421177 29.8939 -0.0563049 29.4144 -0.0563049 28.8663C-0.0563049 28.3183 0.625812 27.8388 0.966871 27.8388C1.30793 27.8388 1.17151 27.8388 1.23972 27.9073C1.51256 27.8388 1.85362 27.8388 2.12647 27.8388H11.8807C12.1536 27.8388 12.4264 27.8388 12.6993 27.9073C12.9721 26.4002 13.6542 24.9616 14.7456 23.9341C16.0417 22.6325 17.8834 21.8104 19.8615 21.8104H25.0456C25.3184 21.8104 25.6595 21.8104 25.9324 21.8789C26.2052 20.5089 26.9555 19.2758 27.9105 18.3167C29.2065 17.0152 31.0482 16.1931 33.0264 16.1931H42.5078H42.6442C43.1899 16.2616 43.5992 16.6726 43.5992 17.2207C43.5992 17.7687 43.1899 18.1797 42.6442 18.2482H42.5078H33.5039H32.9582C31.5257 18.2482 30.2297 18.8648 29.3429 19.7553C28.6608 20.4404 28.1151 21.3994 27.9105 22.427C28.729 22.7695 29.4794 23.3175 30.1615 23.9341C31.4575 25.2356 32.276 27.0852 32.276 29.0719V32.8396V32.9766L32.3443 32.9081ZM17.133 43.7317V40.7175V35.1002C17.133 33.6616 16.5191 32.3601 15.6324 31.4695C15.3595 31.1955 15.0867 30.99 14.7456 30.7845V40.786V43.8002C14.7456 44.4853 15.2913 44.9648 15.9052 44.9648C16.5873 44.9648 17.0648 44.4167 17.0648 43.8002L17.133 43.7317Z" fill="white"/>
<path d="M7.31054 15.2341C6.76485 15.7821 6.492 16.4672 6.492 17.2892V19.2073C6.492 20.0294 6.83306 20.7144 7.31054 21.2624C7.85624 21.8105 8.53835 22.0845 9.35689 22.0845C10.1754 22.0845 10.8576 21.742 11.4032 21.2624C11.9489 20.7144 12.2218 20.0294 12.2218 19.2073V17.2892C12.2218 16.4672 11.8807 15.7821 11.4032 15.2341C10.8576 14.6861 10.1754 14.4121 9.35689 14.4121C8.53835 14.4121 7.85624 14.7546 7.31054 15.2341ZM4.37744 17.2892C4.37744 15.9191 4.92314 14.6861 5.80989 13.7955C6.69664 12.905 7.92445 12.3569 9.28868 12.3569C10.6529 12.3569 11.8807 12.905 12.7675 13.7955C13.6542 14.6861 14.1999 15.9191 14.1999 17.2892V19.2073C14.1999 20.5774 13.6542 21.8105 12.7675 22.701C11.8807 23.5916 10.6529 24.1396 9.28868 24.1396C7.92445 24.1396 6.69664 23.5916 5.80989 22.701C4.92314 21.8105 4.37744 20.5774 4.37744 19.2073V17.2892Z" fill="white"/>
<path d="M20.4754 9.54831C19.9297 10.0963 19.6569 10.7814 19.6569 11.6034V13.5215C19.6569 14.3436 19.9979 15.0286 20.4754 15.5767C21.0211 16.1247 21.7032 16.3987 22.5218 16.3987C23.3403 16.3987 24.0224 16.0562 24.5681 15.5767C25.1138 15.0286 25.3866 14.3436 25.3866 13.5215V11.6034C25.3866 10.7814 25.0456 10.0963 24.5681 9.54831C24.0224 9.00028 23.3403 8.72626 22.5218 8.72626C21.7032 8.72626 21.0211 9.06878 20.4754 9.54831ZM17.5423 11.6034C17.5423 10.2333 18.088 9.00028 18.9747 8.10973C19.8615 7.21917 21.0893 6.67114 22.4535 6.67114C23.8178 6.67114 25.0456 7.21917 25.9323 8.10973C26.8191 9.00028 27.3648 10.2333 27.3648 11.6034V13.5215C27.3648 14.8916 26.8191 16.1247 25.9323 17.0152C25.0456 17.9058 23.8178 18.4538 22.4535 18.4538C21.0893 18.4538 19.8615 17.9058 18.9747 17.0152C18.088 16.1247 17.5423 14.8916 17.5423 13.5215V11.6034Z" fill="white"/>
<path d="M33.7085 3.86252C33.1628 4.41055 32.89 5.09559 32.89 5.91764V7.83575C32.89 8.6578 33.231 9.34284 33.7085 9.89087C34.2542 10.4389 34.9363 10.7129 35.7548 10.7129C36.5734 10.7129 37.2555 10.3704 37.8012 9.89087C38.3469 9.34284 38.6197 8.6578 38.6197 7.83575V5.91764C38.6197 5.09559 38.2787 4.41055 37.8012 3.86252C37.2555 3.31449 36.5734 3.04047 35.7548 3.04047C34.9363 3.04047 34.2542 3.38299 33.7085 3.86252ZM30.7754 5.91764C30.7754 4.54756 31.3211 3.31449 32.2078 2.42393C33.0946 1.53338 34.3224 0.985352 35.6866 0.985352C37.0509 0.985352 38.2787 1.53338 39.1654 2.42393C40.0522 3.31449 40.5979 4.54756 40.5979 5.91764V7.83575C40.5979 9.20583 40.0522 10.4389 39.1654 11.3295C38.2787 12.22 37.0509 12.768 35.6866 12.768C34.3224 12.768 33.0946 12.22 32.2078 11.3295C31.3211 10.4389 30.7754 9.20583 30.7754 7.83575V5.91764Z" fill="white"/>
</g>
<defs>
<clipPath id="clip0_21_1767">
<rect width="103.421" height="13.7063" fill="white" transform="translate(53.5794 17.1152)"/>
</clipPath>
<clipPath id="clip1_21_1767">
<rect width="43.6111" height="46.1032" fill="white" transform="translate(0 0.916748)"/>
</clipPath>
</defs>
</svg>
