<svg width="256" height="76" viewBox="0 0 256 76" fill="none" xmlns="http://www.w3.org/2000/svg">
<g clip-path="url(#clip0_21_1298)">
<path d="M104.643 30.7367H98.4723V48.3902H93.5358V30.7367H87.3651V26.7845H104.643V30.7367ZM137.876 48.3902H132.94V39.6074H123.948V48.3902H119.1V26.7845H123.948V35.3916H132.94V26.7845H137.876V48.3902ZM167.407 48.3902H154.361V26.7845H166.878V30.7367H159.297V35.5673H166.349V39.5195H159.297V44.4379H167.407V48.3902ZM204.431 48.3902H200.023V35.4794C200.023 34.0742 200.112 32.5811 200.2 30.8246H200.112C200.023 31.1759 199.935 31.4394 199.847 31.7907C199.759 32.142 199.671 32.4055 199.583 32.669C199.495 32.9324 199.406 33.1959 199.318 33.4594C199.23 33.7229 199.142 33.8985 199.142 33.9864L194.999 41.8909H191.561L187.594 33.9864C187.594 33.8985 187.506 33.7229 187.418 33.5472C187.33 33.3716 187.241 33.1081 187.153 32.8446C187.065 32.5811 186.977 32.2298 186.889 31.8785C186.801 31.5272 186.713 31.1759 186.624 30.7367H186.448C186.536 31.7028 186.536 32.5811 186.624 33.3716C186.624 34.162 186.713 34.8647 186.713 35.3916V48.3023H182.305V26.6967H188.299L192.09 34.162C192.178 34.4255 192.354 34.689 192.442 34.9525C192.531 35.216 192.707 35.4794 192.795 35.7429C192.883 36.0064 192.971 36.2699 193.059 36.5334C193.148 36.7969 193.236 37.0603 193.236 37.236H193.324C193.412 36.9725 193.412 36.7969 193.5 36.5334C193.588 36.2699 193.677 36.0064 193.765 35.7429C193.853 35.4794 193.941 35.216 194.029 34.9525C194.117 34.689 194.205 34.4255 194.294 34.2499L198.26 26.7845H204.343V48.3902H204.431ZM225.852 48.3902H221.004V26.7845H225.852V48.3902ZM241.279 47.5997V42.7692C242.16 43.4718 243.13 44.0866 244.1 44.4379C245.157 44.7892 246.127 44.9649 247.185 44.9649C247.802 44.9649 248.331 44.877 248.772 44.7892C249.212 44.7014 249.653 44.5257 249.918 44.3501C250.27 44.1744 250.446 43.9109 250.623 43.6474C250.799 43.384 250.887 43.1205 250.887 42.7692C250.887 42.33 250.799 41.9787 250.535 41.6274C250.27 41.2761 249.918 41.0126 249.565 40.7491C249.124 40.4856 248.683 40.2222 248.066 39.9587C247.449 39.6952 246.832 39.4317 246.215 39.1682C244.54 38.4656 243.218 37.5873 242.425 36.6212C241.631 35.5673 241.19 34.4255 241.19 32.9324C241.19 31.7907 241.455 30.8246 241.896 30.0341C242.336 29.2437 242.954 28.541 243.747 28.0141C244.54 27.4871 245.422 27.1358 246.48 26.8723C247.537 26.6088 248.595 26.521 249.741 26.521C250.887 26.521 251.857 26.6088 252.738 26.6967C253.62 26.8723 254.413 27.048 255.119 27.3114V31.7907C254.766 31.5272 254.325 31.3515 253.973 31.088C253.532 30.9124 253.091 30.7367 252.65 30.6489C252.209 30.5611 251.769 30.4733 251.328 30.3854C250.887 30.2976 250.446 30.2976 250.094 30.2976C249.565 30.2976 249.036 30.3854 248.595 30.4733C248.155 30.5611 247.802 30.7367 247.449 30.9124C247.097 31.088 246.92 31.3515 246.744 31.615C246.568 31.8785 246.48 32.142 246.48 32.4933C246.48 32.8446 246.568 33.1959 246.744 33.4594C246.92 33.7229 247.185 33.9864 247.537 34.2499C247.89 34.5133 248.331 34.7768 248.86 35.0403C249.389 35.3038 249.918 35.5673 250.535 35.8308C251.416 36.1821 252.21 36.5334 252.827 36.9725C253.532 37.4117 254.149 37.8508 254.59 38.3778C255.118 38.9047 255.471 39.5195 255.736 40.1343C256 40.7491 256.088 41.5396 256.088 42.4179C256.088 43.6474 255.824 44.6136 255.383 45.4918C254.942 46.2823 254.325 46.9849 253.532 47.5119C252.738 48.0388 251.857 48.3902 250.799 48.5658C249.741 48.8293 248.683 48.9171 247.449 48.9171C246.303 48.9171 245.157 48.8293 244.1 48.6536C243.042 48.478 242.072 48.1267 241.279 47.7754V47.5997Z" fill="#F97615"/>
</g>
<g clip-path="url(#clip1_21_1298)">
<path d="M45.5101 51.941C45.5101 53.058 46.3999 53.8399 47.4009 53.8399C48.5132 53.8399 49.2917 52.9463 49.2917 51.941V47.0262V45.7975C49.2917 43.4517 48.2907 41.3294 46.8448 39.8773C46.3999 39.4305 45.955 39.0954 45.3989 38.7603V47.0262V51.941H45.5101ZM52.7397 52.1644C52.6285 55.0686 50.2928 57.3026 47.4009 57.3026C44.6203 57.3026 42.2846 55.0686 42.0622 52.2761V51.941V37.4199C41.7285 37.4199 41.2836 37.3082 40.8387 37.3082H32.3857C30.05 37.3082 27.9367 38.3135 26.4908 39.7656C25.1561 41.106 24.2663 42.7815 24.0439 44.7922C25.4898 45.3507 26.7132 46.2443 27.7142 47.3613C29.8275 49.4836 31.1622 52.4995 31.1622 55.7388V69.8131V70.3716C30.9398 73.0524 28.604 75.1748 25.9347 75.1748C23.1541 75.1748 20.9296 73.0524 20.7071 70.3716V69.8131V47.3613C20.3735 47.3613 19.9286 47.2496 19.4837 47.2496H17.7041H3.5786H1.57657C0.686773 47.2496 -0.0917969 46.4677 -0.0917969 45.5741C-0.0917969 44.6805 1.02044 43.8986 1.57657 43.8986C2.13269 43.8986 1.91024 43.8986 2.02146 44.0103C2.46636 43.8986 3.02248 43.8986 3.46738 43.8986H19.3724C19.8173 43.8986 20.2622 43.8986 20.7071 44.0103C21.152 41.5528 22.2643 39.2071 24.0439 37.5316C26.1571 35.4093 29.1602 34.0689 32.3857 34.0689H40.8387C41.2836 34.0689 41.8397 34.0689 42.2846 34.1806C42.7295 31.9466 43.953 29.936 45.5101 28.3721C47.6234 26.2498 50.6264 24.9094 53.8519 24.9094H69.3121H69.5345C70.4243 25.0211 71.0917 25.6913 71.0917 26.5849C71.0917 27.4785 70.4243 28.1487 69.5345 28.2604H69.3121H54.6305H53.7407C51.405 28.2604 49.2917 29.2658 47.8458 30.7179C46.7336 31.8349 45.8438 33.3987 45.5101 35.0742C46.8448 35.6327 48.0683 36.5263 49.1805 37.5316C51.2938 39.6539 52.6285 42.6698 52.6285 45.9092V52.0527V52.2761L52.7397 52.1644ZM27.9367 69.8131V64.8983V55.7388C27.9367 53.3931 26.9357 51.2708 25.4898 49.8187C25.0449 49.3719 24.6 49.0368 24.0439 48.7017V65.01V69.9248C24.0439 71.0418 24.9336 71.8237 25.9347 71.8237C27.0469 71.8237 27.8255 70.9301 27.8255 69.9248L27.9367 69.8131Z" fill="#F97615"/>
<path d="M11.9205 23.3455C11.0307 24.2391 10.5858 25.3561 10.5858 26.6965V29.8241C10.5858 31.1645 11.1419 32.2815 11.9205 33.1751C12.8103 34.0688 13.9225 34.5156 15.2572 34.5156C16.5919 34.5156 17.7041 33.9571 18.5939 33.1751C19.4837 32.2815 19.9286 31.1645 19.9286 29.8241V26.6965C19.9286 25.3561 19.3725 24.2391 18.5939 23.3455C17.7041 22.4519 16.5919 22.0051 15.2572 22.0051C13.9225 22.0051 12.8103 22.5636 11.9205 23.3455ZM7.13782 26.6965C7.13782 24.4625 8.02761 22.4519 9.47353 20.9998C10.9194 19.5477 12.9215 18.6541 15.146 18.6541C17.3704 18.6541 19.3725 19.5477 20.8184 20.9998C22.2643 22.4519 23.1541 24.4625 23.1541 26.6965V29.8241C23.1541 32.0581 22.2643 34.0688 20.8184 35.5209C19.3725 36.973 17.3704 37.8666 15.146 37.8666C12.9215 37.8666 10.9194 36.973 9.47353 35.5209C8.02761 34.0688 7.13782 32.0581 7.13782 29.8241V26.6965Z" fill="#F97615"/>
<path d="M33.3866 14.0745C32.4969 14.9681 32.052 16.0851 32.052 17.4255V20.5531C32.052 21.8935 32.6081 23.0106 33.3866 23.9042C34.2764 24.7978 35.3887 25.2446 36.7234 25.2446C38.0581 25.2446 39.1703 24.6861 40.0601 23.9042C40.9499 23.0106 41.3948 21.8935 41.3948 20.5531V17.4255C41.3948 16.0851 40.8387 14.9681 40.0601 14.0745C39.1703 13.1809 38.0581 12.7341 36.7234 12.7341C35.3887 12.7341 34.2764 13.2926 33.3866 14.0745ZM28.604 17.4255C28.604 15.1915 29.4938 13.1809 30.9397 11.7288C32.3856 10.2767 34.3877 9.38306 36.6121 9.38306C38.8366 9.38306 40.8387 10.2767 42.2846 11.7288C43.7305 13.1809 44.6203 15.1915 44.6203 17.4255V20.5531C44.6203 22.7871 43.7305 24.7978 42.2846 26.2499C40.8387 27.702 38.8366 28.5956 36.6121 28.5956C34.3877 28.5956 32.3856 27.702 30.9397 26.2499C29.4938 24.7978 28.604 22.7871 28.604 20.5531V17.4255Z" fill="#F97615"/>
<path d="M54.9642 4.80325C54.0744 5.69685 53.6295 6.81386 53.6295 8.15427V11.2819C53.6295 12.6223 54.1856 13.7393 54.9642 14.6329C55.854 15.5265 56.9662 15.9733 58.3009 15.9733C59.6356 15.9733 60.7478 15.4148 61.6376 14.6329C62.5274 13.7393 62.9723 12.6223 62.9723 11.2819V8.15427C62.9723 6.81386 62.4162 5.69685 61.6376 4.80325C60.7478 3.90964 59.6356 3.46284 58.3009 3.46284C56.9662 3.46284 55.854 4.02134 54.9642 4.80325ZM50.1815 8.15427C50.1815 5.92026 51.0713 3.90964 52.5172 2.45753C53.9631 1.00542 55.9652 0.111816 58.1897 0.111816C60.4141 0.111816 62.4162 1.00542 63.8621 2.45753C65.308 3.90964 66.1978 5.92026 66.1978 8.15427V11.2819C66.1978 13.5159 65.308 15.5265 63.8621 16.9786C62.4162 18.4307 60.4141 19.3243 58.1897 19.3243C55.9652 19.3243 53.9631 18.4307 52.5172 16.9786C51.0713 15.5265 50.1815 13.5159 50.1815 11.2819V8.15427Z" fill="#F97615"/>
</g>
<defs>
<clipPath id="clip0_21_1298">
<rect width="168.635" height="22.3492" fill="white" transform="translate(87.3651 26.4126)"/>
</clipPath>
<clipPath id="clip1_21_1298">
<rect width="71.1111" height="75.1746" fill="white"/>
</clipPath>
</defs>
</svg>
