<svg xmlns="http://www.w3.org/2000/svg" width="41" height="42" viewBox="0 0 41 42" fill="none">
  <g clip-path="url(#clip0_11_117)">
    <path d="M26.2394 29.0193C26.2394 29.6434 26.7525 30.0802 27.3296 30.0802C27.9709 30.0802 28.4198 29.581 28.4198 29.0193V26.2734V25.5869C28.4198 24.2764 27.8426 23.0906 27.009 22.2793C26.7525 22.0297 26.496 21.8425 26.1753 21.6553V26.2734V29.0193H26.2394ZM30.4077 29.1441C30.3436 30.7667 28.9969 32.0149 27.3296 32.0149C25.7264 32.0149 24.3797 30.7667 24.2515 29.2065V29.0193V20.9064C24.0591 20.9064 23.8026 20.844 23.5461 20.844H18.6724C17.3257 20.844 16.1073 21.4056 15.2736 22.2169C14.5041 22.9658 13.991 23.9019 13.8628 25.0253C14.6965 25.3373 15.4019 25.8366 15.979 26.4606C17.1974 27.6464 17.967 29.3314 17.967 31.1412V39.0045V39.3165C17.8387 40.8143 16.492 42 14.953 42C13.3498 42 12.0672 40.8143 11.939 39.3165V39.0045V26.4606C11.7466 26.4606 11.4901 26.3982 11.2336 26.3982H10.2075H2.0633H0.908998C0.395976 26.3982 -0.0529175 25.9614 -0.0529175 25.4621C-0.0529175 24.9629 0.58836 24.526 0.908998 24.526C1.22964 24.526 1.10138 24.526 1.16551 24.5884C1.42202 24.526 1.74266 24.526 1.99917 24.526H11.1694C11.4259 24.526 11.6825 24.526 11.939 24.5884C12.1955 23.2155 12.8368 21.9049 13.8628 20.9688C15.0812 19.7831 16.8127 19.0342 18.6724 19.0342H23.5461C23.8026 19.0342 24.1232 19.0342 24.3797 19.0966C24.6362 17.8484 25.3417 16.7251 26.2394 15.8514C27.4579 14.6657 29.1893 13.9168 31.049 13.9168H39.9628H40.091C40.604 13.9792 40.9888 14.3536 40.9888 14.8529C40.9888 15.3522 40.604 15.7266 40.091 15.789H39.9628H31.4979H30.9849C29.6382 15.789 28.4198 16.3507 27.5861 17.162C26.9448 17.786 26.4318 18.6597 26.2394 19.5958C27.009 19.9079 27.7144 20.4071 28.3557 20.9688C29.5741 22.1545 30.3436 23.8395 30.3436 25.6493V29.0817V29.2065L30.4077 29.1441ZM16.1073 39.0045V36.2585V31.1412C16.1073 29.8306 15.5301 28.6449 14.6965 27.8336C14.4399 27.584 14.1834 27.3967 13.8628 27.2095V36.321V39.0669C13.8628 39.6909 14.3758 40.1278 14.953 40.1278C15.5942 40.1278 16.0431 39.6285 16.0431 39.0669L16.1073 39.0045Z" fill="white"/>
    <path d="M6.87288 13.0431C6.35986 13.5424 6.10335 14.1664 6.10335 14.9153V16.6627C6.10335 17.4116 6.42398 18.0357 6.87288 18.5349C7.3859 19.0342 8.02718 19.2838 8.79671 19.2838C9.56624 19.2838 10.2075 18.9718 10.7205 18.5349C11.2336 18.0357 11.4901 17.4116 11.4901 16.6627V14.9153C11.4901 14.1664 11.1694 13.5424 10.7205 13.0431C10.2075 12.5438 9.56624 12.2942 8.79671 12.2942C8.02718 12.2942 7.3859 12.6062 6.87288 13.0431ZM4.11539 14.9153C4.11539 13.6672 4.62841 12.5438 5.46207 11.7325C6.29573 10.9213 7.45003 10.422 8.73258 10.422C10.0151 10.422 11.1694 10.9213 12.0031 11.7325C12.8368 12.5438 13.3498 13.6672 13.3498 14.9153V16.6627C13.3498 17.9109 12.8368 19.0342 12.0031 19.8455C11.1694 20.6568 10.0151 21.156 8.73258 21.156C7.45003 21.156 6.29573 20.6568 5.46207 19.8455C4.62841 19.0342 4.11539 17.9109 4.11539 16.6627V14.9153Z" fill="white"/>
    <path d="M19.2495 7.8633C18.7365 8.36256 18.48 8.98663 18.48 9.73552V11.4829C18.48 12.2318 18.8006 12.8559 19.2495 13.3551C19.7625 13.8544 20.4038 14.104 21.1734 14.104C21.9429 14.104 22.5842 13.792 23.0972 13.3551C23.6102 12.8559 23.8667 12.2318 23.8667 11.4829V9.73552C23.8667 8.98663 23.5461 8.36256 23.0972 7.8633C22.5842 7.36405 21.9429 7.11442 21.1734 7.11442C20.4038 7.11442 19.7625 7.42645 19.2495 7.8633ZM16.492 9.73552C16.492 8.48737 17.0051 7.36405 17.8387 6.55275C18.6724 5.74146 19.8267 5.2422 21.1092 5.2422C22.3918 5.2422 23.5461 5.74146 24.3797 6.55275C25.2134 7.36405 25.7264 8.48737 25.7264 9.73552V11.4829C25.7264 12.7311 25.2134 13.8544 24.3797 14.6657C23.5461 15.477 22.3918 15.9762 21.1092 15.9762C19.8267 15.9762 18.6724 15.477 17.8387 14.6657C17.0051 13.8544 16.492 12.7311 16.492 11.4829V9.73552Z" fill="white"/>
    <path d="M31.6903 2.68351C31.1773 3.18277 30.9208 3.80684 30.9208 4.55572V6.30312C30.9208 7.05201 31.2414 7.67608 31.6903 8.17533C32.2033 8.67459 32.8446 8.92422 33.6141 8.92422C34.3837 8.92422 35.0249 8.61219 35.538 8.17533C36.051 7.67608 36.3075 7.05201 36.3075 6.30312V4.55572C36.3075 3.80684 35.9868 3.18277 35.538 2.68351C35.0249 2.18425 34.3837 1.93462 33.6141 1.93462C32.8446 1.93462 32.2033 2.24666 31.6903 2.68351ZM28.9328 4.55572C28.9328 3.30758 29.4458 2.18425 30.2795 1.37296C31.1131 0.561665 32.2674 0.0624084 33.55 0.0624084C34.8325 0.0624084 35.9868 0.561665 36.8205 1.37296C37.6542 2.18425 38.1672 3.30758 38.1672 4.55572V6.30312C38.1672 7.55126 37.6542 8.67459 36.8205 9.48589C35.9868 10.2972 34.8325 10.7964 33.55 10.7964C32.2674 10.7964 31.1131 10.2972 30.2795 9.48589C29.4458 8.67459 28.9328 7.55126 28.9328 6.30312V4.55572Z" fill="white"/>
  </g>
  <defs>
    <clipPath id="clip0_11_117">
      <rect width="41" height="42" fill="white"/>
    </clipPath>
  </defs>
</svg>